<svg width="319" height="256" xmlns="http://www.w3.org/2000/svg" xmlns:xlink="http://www.w3.org/1999/xlink" xml:space="preserve" overflow="hidden"><g transform="translate(-3483 -499)"><path d="M3493.5 548.668C3493.5 527.036 3511.04 509.5 3532.67 509.5L3752.33 509.5C3773.96 509.5 3791.5 527.036 3791.5 548.668L3791.5 705.332C3791.5 726.964 3773.96 744.5 3752.33 744.5L3532.67 744.5C3511.04 744.5 3493.5 726.964 3493.5 705.332Z" stroke="#000000" stroke-width="20.625" stroke-miterlimit="8" fill="#5E2615" fill-rule="evenodd"/><path d="M3650.94 516 3742.44 516C3763.74 516 3781 532.491 3781 552.834L3781 700.166C3781 720.509 3763.74 737 3742.44 737L3650.94 737C3600.72 737 3560 698.107 3560 650.129L3560 602.871C3560 554.893 3600.72 516 3650.94 516Z" fill="#71491E" fill-rule="evenodd"/></g></svg>