<svg width="319" height="257" xmlns="http://www.w3.org/2000/svg" xmlns:xlink="http://www.w3.org/1999/xlink" xml:space="preserve" overflow="hidden"><g transform="translate(-3538 -968)"><path d="M3548.5 1017.83C3548.5 996.111 3566.11 978.5 3587.83 978.5L3807.17 978.5C3828.89 978.5 3846.5 996.111 3846.5 1017.83L3846.5 1175.17C3846.5 1196.89 3828.89 1214.5 3807.17 1214.5L3587.83 1214.5C3566.11 1214.5 3548.5 1196.89 3548.5 1175.17Z" stroke="#000000" stroke-width="20.625" stroke-miterlimit="8" fill="#15A842" fill-rule="evenodd"/><path d="M3705.94 985 3797.44 985C3818.74 985 3836 1001.49 3836 1021.83L3836 1169.17C3836 1189.51 3818.74 1206 3797.44 1206L3705.94 1206C3655.72 1206 3615 1167.11 3615 1119.13L3615 1071.87C3615 1023.89 3655.72 985 3705.94 985Z" fill="#50F039" fill-rule="evenodd"/></g></svg>