<svg width="319" height="256" xmlns="http://www.w3.org/2000/svg" xmlns:xlink="http://www.w3.org/1999/xlink" xml:space="preserve" overflow="hidden"><g transform="translate(-3593 -1989)"><path d="M3603.5 2038.67C3603.5 2017.04 3621.04 1999.5 3642.67 1999.5L3862.33 1999.5C3883.96 1999.5 3901.5 2017.04 3901.5 2038.67L3901.5 2195.33C3901.5 2216.96 3883.96 2234.5 3862.33 2234.5L3642.67 2234.5C3621.04 2234.5 3603.5 2216.96 3603.5 2195.33Z" stroke="#000000" stroke-width="20.625" stroke-miterlimit="8" fill="#24A9BF" fill-rule="evenodd"/><path d="M3760.94 2006 3852.44 2006C3873.74 2006 3891 2022.49 3891 2042.83L3891 2190.17C3891 2210.51 3873.74 2227 3852.44 2227L3760.94 2227C3710.72 2227 3670 2188.11 3670 2140.13L3670 2092.87C3670 2044.89 3710.72 2006 3760.94 2006Z" fill="#38FFDD" fill-rule="evenodd"/></g></svg>