<svg width="319" height="256" xmlns="http://www.w3.org/2000/svg" xmlns:xlink="http://www.w3.org/1999/xlink" xml:space="preserve" overflow="hidden"><g transform="translate(-3593 -1350)"><path d="M3603.5 1399.67C3603.5 1378.04 3621.04 1360.5 3642.67 1360.5L3862.33 1360.5C3883.96 1360.5 3901.5 1378.04 3901.5 1399.67L3901.5 1556.33C3901.5 1577.96 3883.96 1595.5 3862.33 1595.5L3642.67 1595.5C3621.04 1595.5 3603.5 1577.96 3603.5 1556.33Z" stroke="#000000" stroke-width="20.625" stroke-miterlimit="8" fill="#B43E15" fill-rule="evenodd"/><path d="M3760.94 1367 3852.44 1367C3873.74 1367 3891 1383.49 3891 1403.83L3891 1551.17C3891 1571.51 3873.74 1588 3852.44 1588L3760.94 1588C3710.72 1588 3670 1549.11 3670 1501.13L3670 1453.87C3670 1405.89 3710.72 1367 3760.94 1367Z" fill="#F07D0D" fill-rule="evenodd"/></g></svg>